<?xml version="1.0" encoding="UTF-8"?>
<!DOCTYPE svg PUBLIC "-//W3C//DTD SVG 1.1//EN" "http://www.w3.org/Graphics/SVG/1.1/DTD/svg11.dtd">
<svg xmlns="http://www.w3.org/2000/svg" version="1.1" width="500px" height="500px" style="shape-rendering:geometricPrecision; text-rendering:geometricPrecision; image-rendering:optimizeQuality; fill-rule:evenodd; clip-rule:evenodd" xmlns:xlink="http://www.w3.org/1999/xlink">
<g><path style="opacity:1" fill="#fefefe" d="M -0.5,-0.5 C 166.167,-0.5 332.833,-0.5 499.5,-0.5C 499.5,166.167 499.5,332.833 499.5,499.5C 332.833,499.5 166.167,499.5 -0.5,499.5C -0.5,332.833 -0.5,166.167 -0.5,-0.5 Z"/></g>
<g><path style="opacity:1" fill="#a91c0e" d="M 18.5,79.5 C 33.837,79.3334 49.1703,79.5001 64.5,80C 65,80.5 65.5,81 66,81.5C 66.3333,108.833 66.6667,136.167 67,163.5C 69.4195,173.077 75.5862,177.411 85.5,176.5C 94.3546,177.491 100.855,174.157 105,166.5C 105.333,138.5 105.667,110.5 106,82.5C 106.833,81.6667 107.667,80.8333 108.5,80C 123.833,79.3333 139.167,79.3333 154.5,80C 155.126,80.7504 155.626,81.5838 156,82.5C 156.667,110.167 156.667,137.833 156,165.5C 153.211,190.291 139.711,205.791 115.5,212C 92.8373,217.439 70.504,216.439 48.5,209C 30.5724,201.741 20.0724,188.574 17,169.5C 16.3333,140.167 16.3333,110.833 17,81.5C 17.7172,80.9558 18.2172,80.2891 18.5,79.5 Z"/></g>
<g><path style="opacity:1" fill="#ffe137" d="M 278.5,209.5 C 278.667,189.497 278.5,169.497 278,149.5C 277.283,150.044 276.783,150.711 276.5,151.5C 272.538,160.757 268.038,169.757 263,178.5C 258.721,180.998 254.054,181.998 249,181.5C 244.199,182.037 239.866,181.037 236,178.5C 231.487,169.473 226.987,160.473 222.5,151.5C 222.217,150.711 221.717,150.044 221,149.5C 220.5,169.497 220.333,189.497 220.5,209.5C 220.489,211.017 219.823,212.184 218.5,213C 205.167,213.667 191.833,213.667 178.5,213C 177.667,212.167 176.833,211.333 176,210.5C 175.333,167.833 175.333,125.167 176,82.5C 176.833,81 178,79.8333 179.5,79C 192.5,78.3333 205.5,78.3333 218.5,79C 220.624,80.1217 222.457,81.6217 224,83.5C 232.246,98.9943 240.746,114.328 249.5,129.5C 258.254,114.328 266.754,98.9943 275,83.5C 276.167,82.3333 277.333,81.1667 278.5,80C 285.566,78.8676 292.733,78.3676 300,78.5C 306.5,78.6667 313,78.8333 319.5,79C 320.416,79.3742 321.25,79.8742 322,80.5C 323.656,123.75 323.989,167.083 323,210.5C 322.167,211.333 321.333,212.167 320.5,213C 307.167,213.667 293.833,213.667 280.5,213C 279.177,212.184 278.511,211.017 278.5,209.5 Z"/></g>
<g><path style="opacity:1" fill="#251671" d="M 409.5,83.5 C 409.5,113.833 409.5,144.167 409.5,174.5C 431.833,174.5 454.167,174.5 476.5,174.5C 478.113,174.944 479.28,175.944 480,177.5C 480.667,188.5 480.667,199.5 480,210.5C 479.167,211.333 478.333,212.167 477.5,213C 438.5,213.667 399.5,213.667 360.5,213C 360,212.5 359.5,212 359,211.5C 357.344,168.584 357.011,125.584 358,82.5C 358.833,81.6667 359.667,80.8333 360.5,80C 376.167,79.3333 391.833,79.3333 407.5,80C 408.823,80.8159 409.489,81.9826 409.5,83.5 Z"/></g>
<g><path style="opacity:1" fill="#ffef91" d="M 222.5,151.5 C 221.833,170.833 221.167,190.167 220.5,209.5C 220.333,189.497 220.5,169.497 221,149.5C 221.717,150.044 222.217,150.711 222.5,151.5 Z"/></g>
<g><path style="opacity:1" fill="#fff3b4" d="M 278.5,209.5 C 277.833,190.167 277.167,170.833 276.5,151.5C 276.783,150.711 277.283,150.044 278,149.5C 278.5,169.497 278.667,189.497 278.5,209.5 Z"/></g>
<g><path style="opacity:1" fill="#bbb6d3" d="M 409.5,83.5 C 410.498,113.329 410.831,143.329 410.5,173.5C 432.673,173.169 454.673,173.503 476.5,174.5C 454.167,174.5 431.833,174.5 409.5,174.5C 409.5,144.167 409.5,113.833 409.5,83.5 Z"/></g>
<g><path style="opacity:1" fill="#59788e" d="M 73.5,269.5 C 83.8387,269.334 94.172,269.5 104.5,270C 119.247,271.452 131.08,277.952 140,289.5C 147.965,304.339 147.298,318.672 138,332.5C 125.27,345.572 111.103,356.739 95.5,366C 113.167,366.333 130.833,366.667 148.5,367C 149,367.5 149.5,368 150,368.5C 150.667,379.833 150.667,391.167 150,402.5C 149.692,403.308 149.192,403.975 148.5,404.5C 108.208,405.661 67.8747,405.827 27.5,405C 26.6667,404.167 25.8333,403.333 25,402.5C 24.0463,391.402 24.3796,380.402 26,369.5C 46.2701,356.283 66.1034,342.449 85.5,328C 92.074,323.461 94.9074,317.294 94,309.5C 88.7186,305.301 83.7186,305.634 79,310.5C 77.3771,313.327 76.2105,316.327 75.5,319.5C 74.9747,320.192 74.3081,320.692 73.5,321C 59.1667,321.667 44.8333,321.667 30.5,321C 29.0692,320.535 27.9025,319.701 27,318.5C 26.3828,301.454 33.2161,288.288 47.5,279C 55.7633,274.305 64.4299,271.139 73.5,269.5 Z"/></g>
<g><path style="opacity:1" fill="#4bff2c" d="M 361.5,325.5 C 364.167,325.5 366.833,325.5 369.5,325.5C 369.5,346.167 369.5,366.833 369.5,387.5C 366.833,387.5 364.167,387.5 361.5,387.5C 361.664,384.813 361.497,382.146 361,379.5C 357.525,386.894 351.691,389.728 343.5,388C 338.026,386.526 334.526,383.026 333,377.5C 331.512,369.555 331.178,361.555 332,353.5C 335.373,341.897 342.873,337.73 354.5,341C 357.756,342.587 359.923,345.087 361,348.5C 361.5,340.841 361.666,333.174 361.5,325.5 Z"/></g>
<g><path style="opacity:1" fill="#4bff2c" d="M 212.5,337.5 C 213.5,337.5 214.5,337.5 215.5,337.5C 215.768,340.119 215.435,342.619 214.5,345C 204.741,350.213 194.741,354.88 184.5,359C 194.622,363.561 204.622,368.394 214.5,373.5C 215.833,376.167 215.833,378.833 214.5,381.5C 202.833,375.667 191.167,369.833 179.5,364C 178.213,360.875 178.213,357.709 179.5,354.5C 190.718,349.059 201.718,343.392 212.5,337.5 Z"/></g>
<g><path style="opacity:1" fill="#46ff26" d="M 434.5,336.5 C 446.473,342.487 458.473,348.487 470.5,354.5C 471.787,357.709 471.787,360.875 470.5,364C 458.559,370.138 446.559,375.972 434.5,381.5C 434.232,378.881 434.565,376.381 435.5,374C 445.324,369.255 454.99,364.255 464.5,359C 454.711,354.606 445.045,349.939 435.5,345C 434.556,342.281 434.223,339.448 434.5,336.5 Z"/></g>
<g><path style="opacity:1" fill="#47ff27" d="M 243.5,339.5 C 256.662,337.409 264.662,342.742 267.5,355.5C 264.833,355.5 262.167,355.5 259.5,355.5C 259.102,350.6 256.435,347.767 251.5,347C 240.063,346.79 235.729,352.457 238.5,364C 236.479,378.966 242.479,383.966 256.5,379C 258.451,377.266 259.451,375.099 259.5,372.5C 262.167,372.5 264.833,372.5 267.5,372.5C 264.676,385.424 256.676,390.591 243.5,388C 236.667,386.5 232.5,382.333 231,375.5C 230.333,367.5 230.333,359.5 231,351.5C 233.208,345.337 237.375,341.337 243.5,339.5 Z"/></g>
<g><path style="opacity:1" fill="#45ff25" d="M 294.5,339.5 C 305.717,338.02 313.55,342.353 318,352.5C 318.91,361.244 318.576,369.911 317,378.5C 309.187,389.206 299.354,391.373 287.5,385C 284.193,382.222 282.026,378.722 281,374.5C 280.099,366.421 280.432,358.421 282,350.5C 284.505,344.822 288.671,341.155 294.5,339.5 Z"/></g>
<g><path style="opacity:1" fill="#48ff28" d="M 396.5,339.5 C 415.729,338.4 423.729,347.4 420.5,366.5C 410.833,366.5 401.167,366.5 391.5,366.5C 390.103,377.936 395.103,382.769 406.5,381C 409.023,380.482 411.023,379.148 412.5,377C 419.494,375.213 421.327,377.046 418,382.5C 409.064,389.31 399.564,390.143 389.5,385C 387.641,383.442 386.141,381.609 385,379.5C 383.416,370.242 383.083,360.909 384,351.5C 386.168,345.347 390.335,341.347 396.5,339.5 Z"/></g>
<g><path style="opacity:1" fill="#fafff9" d="M 346.5,346.5 C 353.553,345.337 358.386,348.004 361,354.5C 361.667,360.833 361.667,367.167 361,373.5C 357.776,381.346 352.276,383.513 344.5,380C 342.383,378.269 340.883,376.102 340,373.5C 339.333,367.167 339.333,360.833 340,354.5C 341.305,351.039 343.471,348.372 346.5,346.5 Z"/></g>
<g><path style="opacity:1" fill="#fdfffc" d="M 295.5,346.5 C 302.034,345.502 306.868,347.836 310,353.5C 310.896,361.246 310.563,368.913 309,376.5C 304.701,381.448 299.534,382.615 293.5,380C 291.19,378.363 289.69,376.196 289,373.5C 288.333,366.833 288.333,360.167 289,353.5C 290.694,350.642 292.861,348.309 295.5,346.5 Z"/></g>
<g><path style="opacity:1" fill="#fdfffc" d="M 398.5,346.5 C 408.37,345.373 413.037,349.707 412.5,359.5C 405.5,359.5 398.5,359.5 391.5,359.5C 390.472,353.215 392.805,348.882 398.5,346.5 Z"/></g>
</svg>
